<mxfile host="app.diagrams.net" modified="2023-11-11T12:24:41.151Z" agent="Mozilla/5.0 (Windows NT 10.0; Win64; x64) AppleWebKit/537.36 (KHTML, like Gecko) Chrome/119.0.0.0 Safari/537.36" etag="IZlOdqHbAGjeOE_nShul" version="22.1.0" type="device">
  <diagram id="TODrGrZWYXxr-HhPChQ0" name="Page-1">
    <mxGraphModel dx="2048" dy="648" grid="1" gridSize="10" guides="1" tooltips="1" connect="1" arrows="1" fold="1" page="1" pageScale="1" pageWidth="827" pageHeight="1169" math="0" shadow="0">
      <root>
        <mxCell id="0" />
        <mxCell id="1" parent="0" />
        <mxCell id="hElJWdTbk3UEkmLetc8G-148" value="User" style="rounded=0;whiteSpace=wrap;html=1;" parent="1" vertex="1">
          <mxGeometry x="80" y="920" width="130" height="60" as="geometry" />
        </mxCell>
        <mxCell id="hElJWdTbk3UEkmLetc8G-149" value="id" style="ellipse;whiteSpace=wrap;html=1;" parent="1" vertex="1">
          <mxGeometry x="-10" y="780" width="100" height="50" as="geometry" />
        </mxCell>
        <mxCell id="hElJWdTbk3UEkmLetc8G-150" value="" style="endArrow=none;html=1;rounded=0;entryX=0.613;entryY=0.977;entryDx=0;entryDy=0;entryPerimeter=0;exitX=0.556;exitY=-0.024;exitDx=0;exitDy=0;exitPerimeter=0;" parent="1" source="hElJWdTbk3UEkmLetc8G-148" target="hElJWdTbk3UEkmLetc8G-149" edge="1">
          <mxGeometry width="50" height="50" relative="1" as="geometry">
            <mxPoint x="150" y="910" as="sourcePoint" />
            <mxPoint x="420" y="1020" as="targetPoint" />
          </mxGeometry>
        </mxCell>
        <mxCell id="hElJWdTbk3UEkmLetc8G-151" value="name" style="ellipse;whiteSpace=wrap;html=1;" parent="1" vertex="1">
          <mxGeometry x="90" y="770" width="110" height="50" as="geometry" />
        </mxCell>
        <mxCell id="hElJWdTbk3UEkmLetc8G-152" value="" style="endArrow=none;html=1;rounded=0;entryX=0.397;entryY=1.087;entryDx=0;entryDy=0;entryPerimeter=0;exitX=0.577;exitY=0.05;exitDx=0;exitDy=0;exitPerimeter=0;" parent="1" source="hElJWdTbk3UEkmLetc8G-148" target="hElJWdTbk3UEkmLetc8G-151" edge="1">
          <mxGeometry width="50" height="50" relative="1" as="geometry">
            <mxPoint x="160" y="910" as="sourcePoint" />
            <mxPoint x="74" y="859" as="targetPoint" />
          </mxGeometry>
        </mxCell>
        <mxCell id="hElJWdTbk3UEkmLetc8G-153" value="email(username)" style="ellipse;whiteSpace=wrap;html=1;" parent="1" vertex="1">
          <mxGeometry x="210" y="770" width="130" height="50" as="geometry" />
        </mxCell>
        <mxCell id="hElJWdTbk3UEkmLetc8G-154" value="" style="endArrow=none;html=1;rounded=0;entryX=0.22;entryY=0.93;entryDx=0;entryDy=0;exitX=0.577;exitY=-0.009;exitDx=0;exitDy=0;entryPerimeter=0;exitPerimeter=0;" parent="1" source="hElJWdTbk3UEkmLetc8G-148" target="hElJWdTbk3UEkmLetc8G-153" edge="1">
          <mxGeometry width="50" height="50" relative="1" as="geometry">
            <mxPoint x="123" y="930" as="sourcePoint" />
            <mxPoint x="180" y="840" as="targetPoint" />
          </mxGeometry>
        </mxCell>
        <mxCell id="hElJWdTbk3UEkmLetc8G-155" value="password" style="ellipse;whiteSpace=wrap;html=1;" parent="1" vertex="1">
          <mxGeometry x="280" y="820" width="120" height="50" as="geometry" />
        </mxCell>
        <mxCell id="hElJWdTbk3UEkmLetc8G-156" value="" style="endArrow=none;html=1;rounded=0;entryX=0.271;entryY=0.998;entryDx=0;entryDy=0;entryPerimeter=0;" parent="1" target="hElJWdTbk3UEkmLetc8G-155" edge="1">
          <mxGeometry width="50" height="50" relative="1" as="geometry">
            <mxPoint x="150" y="920" as="sourcePoint" />
            <mxPoint x="266" y="846" as="targetPoint" />
          </mxGeometry>
        </mxCell>
        <mxCell id="hElJWdTbk3UEkmLetc8G-157" value="about" style="ellipse;whiteSpace=wrap;html=1;" parent="1" vertex="1">
          <mxGeometry x="310" y="870" width="120" height="60" as="geometry" />
        </mxCell>
        <mxCell id="hElJWdTbk3UEkmLetc8G-158" value="" style="endArrow=none;html=1;rounded=0;entryX=0.012;entryY=0.731;entryDx=0;entryDy=0;entryPerimeter=0;" parent="1" target="hElJWdTbk3UEkmLetc8G-157" edge="1">
          <mxGeometry width="50" height="50" relative="1" as="geometry">
            <mxPoint x="160" y="920" as="sourcePoint" />
            <mxPoint x="317" y="860" as="targetPoint" />
          </mxGeometry>
        </mxCell>
        <mxCell id="hElJWdTbk3UEkmLetc8G-159" value="post_id" style="ellipse;whiteSpace=wrap;html=1;" parent="1" vertex="1">
          <mxGeometry x="430" y="770" width="110" height="50" as="geometry" />
        </mxCell>
        <mxCell id="hElJWdTbk3UEkmLetc8G-160" value="" style="endArrow=none;html=1;rounded=0;entryX=0.607;entryY=1.038;entryDx=0;entryDy=0;entryPerimeter=0;exitX=0.586;exitY=0.035;exitDx=0;exitDy=0;exitPerimeter=0;" parent="1" source="hElJWdTbk3UEkmLetc8G-169" target="hElJWdTbk3UEkmLetc8G-159" edge="1">
          <mxGeometry width="50" height="50" relative="1" as="geometry">
            <mxPoint x="610" y="940" as="sourcePoint" />
            <mxPoint x="321" y="897" as="targetPoint" />
            <Array as="points">
              <mxPoint x="640" y="920" />
            </Array>
          </mxGeometry>
        </mxCell>
        <mxCell id="hElJWdTbk3UEkmLetc8G-161" value="title" style="ellipse;whiteSpace=wrap;html=1;" parent="1" vertex="1">
          <mxGeometry x="540" y="750" width="110" height="50" as="geometry" />
        </mxCell>
        <mxCell id="hElJWdTbk3UEkmLetc8G-162" value="contant" style="ellipse;whiteSpace=wrap;html=1;" parent="1" vertex="1">
          <mxGeometry x="657" y="750" width="110" height="50" as="geometry" />
        </mxCell>
        <mxCell id="hElJWdTbk3UEkmLetc8G-163" value="image" style="ellipse;whiteSpace=wrap;html=1;" parent="1" vertex="1">
          <mxGeometry x="825" y="760" width="110" height="50" as="geometry" />
        </mxCell>
        <mxCell id="hElJWdTbk3UEkmLetc8G-164" value="" style="endArrow=none;html=1;rounded=0;exitX=0.5;exitY=1;exitDx=0;exitDy=0;entryX=0.371;entryY=1.056;entryDx=0;entryDy=0;entryPerimeter=0;" parent="1" source="hElJWdTbk3UEkmLetc8G-161" target="hElJWdTbk3UEkmLetc8G-162" edge="1">
          <mxGeometry width="50" height="50" relative="1" as="geometry">
            <mxPoint x="430" y="1110" as="sourcePoint" />
            <mxPoint x="480" y="1060" as="targetPoint" />
            <Array as="points">
              <mxPoint x="640" y="920" />
            </Array>
          </mxGeometry>
        </mxCell>
        <mxCell id="hElJWdTbk3UEkmLetc8G-165" value="" style="endArrow=none;html=1;rounded=0;" parent="1" target="hElJWdTbk3UEkmLetc8G-163" edge="1">
          <mxGeometry width="50" height="50" relative="1" as="geometry">
            <mxPoint x="610" y="940" as="sourcePoint" />
            <mxPoint x="480" y="1060" as="targetPoint" />
          </mxGeometry>
        </mxCell>
        <mxCell id="hElJWdTbk3UEkmLetc8G-166" value="user_id" style="ellipse;whiteSpace=wrap;html=1;fontStyle=1;fillColor=#ffe6cc;strokeColor=#d79b00;" parent="1" vertex="1">
          <mxGeometry x="840" y="830" width="110" height="50" as="geometry" />
        </mxCell>
        <mxCell id="hElJWdTbk3UEkmLetc8G-167" value="" style="endArrow=none;html=1;rounded=0;entryX=0;entryY=0.5;entryDx=0;entryDy=0;exitX=0.579;exitY=0.006;exitDx=0;exitDy=0;exitPerimeter=0;" parent="1" source="hElJWdTbk3UEkmLetc8G-169" target="hElJWdTbk3UEkmLetc8G-166" edge="1">
          <mxGeometry width="50" height="50" relative="1" as="geometry">
            <mxPoint x="620" y="940" as="sourcePoint" />
            <mxPoint x="775" y="882" as="targetPoint" />
          </mxGeometry>
        </mxCell>
        <mxCell id="hElJWdTbk3UEkmLetc8G-168" value="" style="endArrow=none;html=1;rounded=0;entryX=0;entryY=0.5;entryDx=0;entryDy=0;" parent="1" target="hElJWdTbk3UEkmLetc8G-169" edge="1">
          <mxGeometry width="50" height="50" relative="1" as="geometry">
            <mxPoint x="620" y="940" as="sourcePoint" />
            <mxPoint x="760" y="875" as="targetPoint" />
          </mxGeometry>
        </mxCell>
        <mxCell id="hElJWdTbk3UEkmLetc8G-169" value="Post" style="rounded=0;whiteSpace=wrap;html=1;" parent="1" vertex="1">
          <mxGeometry x="570" y="920" width="120" height="60" as="geometry" />
        </mxCell>
        <mxCell id="hElJWdTbk3UEkmLetc8G-170" value="Can Have" style="rhombus;whiteSpace=wrap;html=1;" parent="1" vertex="1">
          <mxGeometry x="360" y="970" width="120" height="80" as="geometry" />
        </mxCell>
        <mxCell id="hElJWdTbk3UEkmLetc8G-171" value="" style="endArrow=none;html=1;rounded=0;entryX=0;entryY=0.5;entryDx=0;entryDy=0;exitX=1;exitY=0.5;exitDx=0;exitDy=0;" parent="1" source="hElJWdTbk3UEkmLetc8G-170" target="hElJWdTbk3UEkmLetc8G-169" edge="1">
          <mxGeometry width="50" height="50" relative="1" as="geometry">
            <mxPoint x="430" y="1010" as="sourcePoint" />
            <mxPoint x="480" y="960" as="targetPoint" />
          </mxGeometry>
        </mxCell>
        <mxCell id="hElJWdTbk3UEkmLetc8G-172" value="" style="endArrow=none;html=1;rounded=0;entryX=1;entryY=0.5;entryDx=0;entryDy=0;exitX=0;exitY=0.5;exitDx=0;exitDy=0;" parent="1" source="hElJWdTbk3UEkmLetc8G-170" target="hElJWdTbk3UEkmLetc8G-148" edge="1">
          <mxGeometry width="50" height="50" relative="1" as="geometry">
            <mxPoint x="430" y="1010" as="sourcePoint" />
            <mxPoint x="480" y="960" as="targetPoint" />
          </mxGeometry>
        </mxCell>
        <mxCell id="hElJWdTbk3UEkmLetc8G-173" value="1" style="text;html=1;strokeColor=none;fillColor=none;align=center;verticalAlign=middle;whiteSpace=wrap;rounded=0;fontStyle=1" parent="1" vertex="1">
          <mxGeometry x="235" y="950" width="60" height="30" as="geometry" />
        </mxCell>
        <mxCell id="hElJWdTbk3UEkmLetc8G-174" value="n" style="text;html=1;strokeColor=none;fillColor=none;align=center;verticalAlign=middle;whiteSpace=wrap;rounded=0;fontStyle=1" parent="1" vertex="1">
          <mxGeometry x="490" y="950" width="60" height="30" as="geometry" />
        </mxCell>
        <mxCell id="hElJWdTbk3UEkmLetc8G-175" value="Comment" style="rounded=0;whiteSpace=wrap;html=1;" parent="1" vertex="1">
          <mxGeometry x="470" y="1300" width="120" height="60" as="geometry" />
        </mxCell>
        <mxCell id="hElJWdTbk3UEkmLetc8G-176" value="comment_id" style="ellipse;whiteSpace=wrap;html=1;" parent="1" vertex="1">
          <mxGeometry x="340" y="1100" width="110" height="60" as="geometry" />
        </mxCell>
        <mxCell id="hElJWdTbk3UEkmLetc8G-177" value="" style="endArrow=none;html=1;rounded=0;exitX=0.333;exitY=0;exitDx=0;exitDy=0;exitPerimeter=0;entryX=0.7;entryY=1.017;entryDx=0;entryDy=0;entryPerimeter=0;" parent="1" source="hElJWdTbk3UEkmLetc8G-175" target="hElJWdTbk3UEkmLetc8G-176" edge="1">
          <mxGeometry width="50" height="50" relative="1" as="geometry">
            <mxPoint x="380" y="1100" as="sourcePoint" />
            <mxPoint x="540" y="1140" as="targetPoint" />
          </mxGeometry>
        </mxCell>
        <mxCell id="hElJWdTbk3UEkmLetc8G-178" value="comment" style="ellipse;whiteSpace=wrap;html=1;" parent="1" vertex="1">
          <mxGeometry x="460" y="1090" width="110" height="60" as="geometry" />
        </mxCell>
        <mxCell id="hElJWdTbk3UEkmLetc8G-179" value="" style="endArrow=none;html=1;rounded=0;entryX=0.5;entryY=1;entryDx=0;entryDy=0;" parent="1" target="hElJWdTbk3UEkmLetc8G-178" edge="1">
          <mxGeometry width="50" height="50" relative="1" as="geometry">
            <mxPoint x="510" y="1300" as="sourcePoint" />
            <mxPoint x="550" y="1150" as="targetPoint" />
          </mxGeometry>
        </mxCell>
        <mxCell id="hElJWdTbk3UEkmLetc8G-180" value="date" style="ellipse;whiteSpace=wrap;html=1;" parent="1" vertex="1">
          <mxGeometry x="580" y="1090" width="110" height="60" as="geometry" />
        </mxCell>
        <mxCell id="hElJWdTbk3UEkmLetc8G-181" value="" style="endArrow=none;html=1;rounded=0;entryX=0.299;entryY=0.943;entryDx=0;entryDy=0;entryPerimeter=0;" parent="1" target="hElJWdTbk3UEkmLetc8G-180" edge="1">
          <mxGeometry width="50" height="50" relative="1" as="geometry">
            <mxPoint x="510" y="1300" as="sourcePoint" />
            <mxPoint x="620" y="1140" as="targetPoint" />
          </mxGeometry>
        </mxCell>
        <mxCell id="hElJWdTbk3UEkmLetc8G-182" value="category_id" style="ellipse;whiteSpace=wrap;html=1;fillColor=#f8cecc;strokeColor=#b85450;fontStyle=1" parent="1" vertex="1">
          <mxGeometry x="810" y="890" width="110" height="50" as="geometry" />
        </mxCell>
        <mxCell id="hElJWdTbk3UEkmLetc8G-183" value="" style="endArrow=none;html=1;rounded=0;entryX=0;entryY=0.5;entryDx=0;entryDy=0;exitX=0.601;exitY=-0.009;exitDx=0;exitDy=0;exitPerimeter=0;" parent="1" source="hElJWdTbk3UEkmLetc8G-169" target="hElJWdTbk3UEkmLetc8G-182" edge="1">
          <mxGeometry width="50" height="50" relative="1" as="geometry">
            <mxPoint x="650" y="910" as="sourcePoint" />
            <mxPoint x="770" y="885" as="targetPoint" />
          </mxGeometry>
        </mxCell>
        <mxCell id="hElJWdTbk3UEkmLetc8G-184" value="post_id" style="ellipse;whiteSpace=wrap;html=1;fontStyle=1;fillColor=#dae8fc;strokeColor=#6c8ebf;" parent="1" vertex="1">
          <mxGeometry x="650" y="1145" width="110" height="60" as="geometry" />
        </mxCell>
        <mxCell id="hElJWdTbk3UEkmLetc8G-185" value="user_id" style="ellipse;whiteSpace=wrap;html=1;fontStyle=1;fillColor=#ffe6cc;strokeColor=#d79b00;" parent="1" vertex="1">
          <mxGeometry x="230" y="1120" width="110" height="60" as="geometry" />
        </mxCell>
        <mxCell id="hElJWdTbk3UEkmLetc8G-186" value="" style="endArrow=none;html=1;rounded=0;entryX=0.074;entryY=0.717;entryDx=0;entryDy=0;entryPerimeter=0;" parent="1" target="hElJWdTbk3UEkmLetc8G-184" edge="1">
          <mxGeometry width="50" height="50" relative="1" as="geometry">
            <mxPoint x="510" y="1300" as="sourcePoint" />
            <mxPoint x="751" y="1120" as="targetPoint" />
          </mxGeometry>
        </mxCell>
        <mxCell id="hElJWdTbk3UEkmLetc8G-187" value="" style="endArrow=none;html=1;rounded=0;exitX=0.325;exitY=-0.006;exitDx=0;exitDy=0;exitPerimeter=0;entryX=0.572;entryY=1.08;entryDx=0;entryDy=0;entryPerimeter=0;" parent="1" source="hElJWdTbk3UEkmLetc8G-175" target="hElJWdTbk3UEkmLetc8G-185" edge="1">
          <mxGeometry width="50" height="50" relative="1" as="geometry">
            <mxPoint x="670" y="1200" as="sourcePoint" />
            <mxPoint x="550" y="1150" as="targetPoint" />
          </mxGeometry>
        </mxCell>
        <mxCell id="hElJWdTbk3UEkmLetc8G-188" value="do" style="rhombus;whiteSpace=wrap;html=1;" parent="1" vertex="1">
          <mxGeometry x="90" y="1130" width="110" height="90" as="geometry" />
        </mxCell>
        <mxCell id="hElJWdTbk3UEkmLetc8G-189" value="" style="endArrow=none;html=1;rounded=0;entryX=0.433;entryY=1.043;entryDx=0;entryDy=0;entryPerimeter=0;exitX=0.5;exitY=0;exitDx=0;exitDy=0;" parent="1" source="hElJWdTbk3UEkmLetc8G-188" target="hElJWdTbk3UEkmLetc8G-148" edge="1">
          <mxGeometry width="50" height="50" relative="1" as="geometry">
            <mxPoint x="370" y="1100" as="sourcePoint" />
            <mxPoint x="420" y="1050" as="targetPoint" />
          </mxGeometry>
        </mxCell>
        <mxCell id="hElJWdTbk3UEkmLetc8G-190" value="" style="endArrow=none;html=1;rounded=0;entryX=0.5;entryY=1;entryDx=0;entryDy=0;exitX=0;exitY=0.5;exitDx=0;exitDy=0;" parent="1" source="hElJWdTbk3UEkmLetc8G-175" target="hElJWdTbk3UEkmLetc8G-188" edge="1">
          <mxGeometry width="50" height="50" relative="1" as="geometry">
            <mxPoint x="610" y="1240" as="sourcePoint" />
            <mxPoint x="420" y="1050" as="targetPoint" />
          </mxGeometry>
        </mxCell>
        <mxCell id="hElJWdTbk3UEkmLetc8G-191" value="&lt;b&gt;1&lt;/b&gt;" style="text;html=1;strokeColor=none;fillColor=none;align=center;verticalAlign=middle;whiteSpace=wrap;rounded=0;" parent="1" vertex="1">
          <mxGeometry x="125" y="1050" width="60" height="30" as="geometry" />
        </mxCell>
        <mxCell id="hElJWdTbk3UEkmLetc8G-192" value="&lt;b&gt;n&lt;/b&gt;" style="text;html=1;strokeColor=none;fillColor=none;align=center;verticalAlign=middle;whiteSpace=wrap;rounded=0;" parent="1" vertex="1">
          <mxGeometry x="270" y="1200" width="60" height="30" as="geometry" />
        </mxCell>
        <mxCell id="hElJWdTbk3UEkmLetc8G-193" value="have" style="rhombus;whiteSpace=wrap;html=1;" parent="1" vertex="1">
          <mxGeometry x="840" y="1050" width="80" height="80" as="geometry" />
        </mxCell>
        <mxCell id="hElJWdTbk3UEkmLetc8G-194" value="" style="endArrow=none;html=1;rounded=0;entryX=0.5;entryY=1;entryDx=0;entryDy=0;exitX=0.5;exitY=0;exitDx=0;exitDy=0;" parent="1" source="hElJWdTbk3UEkmLetc8G-193" target="hElJWdTbk3UEkmLetc8G-169" edge="1">
          <mxGeometry width="50" height="50" relative="1" as="geometry">
            <mxPoint x="390" y="1090" as="sourcePoint" />
            <mxPoint x="440" y="1040" as="targetPoint" />
          </mxGeometry>
        </mxCell>
        <mxCell id="hElJWdTbk3UEkmLetc8G-195" value="" style="endArrow=none;html=1;rounded=0;entryX=0.5;entryY=1;entryDx=0;entryDy=0;exitX=1;exitY=0.5;exitDx=0;exitDy=0;" parent="1" source="hElJWdTbk3UEkmLetc8G-175" target="hElJWdTbk3UEkmLetc8G-193" edge="1">
          <mxGeometry width="50" height="50" relative="1" as="geometry">
            <mxPoint x="390" y="1090" as="sourcePoint" />
            <mxPoint x="440" y="1040" as="targetPoint" />
          </mxGeometry>
        </mxCell>
        <mxCell id="hElJWdTbk3UEkmLetc8G-196" value="&lt;b&gt;1&lt;/b&gt;" style="text;html=1;strokeColor=none;fillColor=none;align=center;verticalAlign=middle;whiteSpace=wrap;rounded=0;" parent="1" vertex="1">
          <mxGeometry x="720" y="990" width="60" height="30" as="geometry" />
        </mxCell>
        <mxCell id="hElJWdTbk3UEkmLetc8G-197" value="&lt;b&gt;n&lt;/b&gt;" style="text;html=1;strokeColor=none;fillColor=none;align=center;verticalAlign=middle;whiteSpace=wrap;rounded=0;" parent="1" vertex="1">
          <mxGeometry x="730" y="1220" width="60" height="30" as="geometry" />
        </mxCell>
        <mxCell id="hElJWdTbk3UEkmLetc8G-198" value="category" style="rounded=0;whiteSpace=wrap;html=1;" parent="1" vertex="1">
          <mxGeometry x="610" y="510" width="120" height="60" as="geometry" />
        </mxCell>
        <mxCell id="hElJWdTbk3UEkmLetc8G-199" value="category_id" style="ellipse;whiteSpace=wrap;html=1;" parent="1" vertex="1">
          <mxGeometry x="490" y="390" width="120" height="60" as="geometry" />
        </mxCell>
        <mxCell id="hElJWdTbk3UEkmLetc8G-200" value="title" style="ellipse;whiteSpace=wrap;html=1;" parent="1" vertex="1">
          <mxGeometry x="657" y="380" width="110" height="60" as="geometry" />
        </mxCell>
        <mxCell id="hElJWdTbk3UEkmLetc8G-201" value="" style="endArrow=none;html=1;rounded=0;entryX=0.59;entryY=1.031;entryDx=0;entryDy=0;entryPerimeter=0;" parent="1" target="hElJWdTbk3UEkmLetc8G-199" edge="1">
          <mxGeometry width="50" height="50" relative="1" as="geometry">
            <mxPoint x="670" y="510" as="sourcePoint" />
            <mxPoint x="520" y="690" as="targetPoint" />
          </mxGeometry>
        </mxCell>
        <mxCell id="hElJWdTbk3UEkmLetc8G-202" value="" style="endArrow=none;html=1;rounded=0;entryX=0.5;entryY=1;entryDx=0;entryDy=0;" parent="1" target="hElJWdTbk3UEkmLetc8G-200" edge="1">
          <mxGeometry width="50" height="50" relative="1" as="geometry">
            <mxPoint x="670" y="510" as="sourcePoint" />
            <mxPoint x="561" y="472" as="targetPoint" />
          </mxGeometry>
        </mxCell>
        <mxCell id="hElJWdTbk3UEkmLetc8G-203" value="contain" style="rhombus;whiteSpace=wrap;html=1;" parent="1" vertex="1">
          <mxGeometry x="880" y="600" width="80" height="80" as="geometry" />
        </mxCell>
        <mxCell id="hElJWdTbk3UEkmLetc8G-204" value="" style="endArrow=none;html=1;rounded=0;entryX=1;entryY=0.5;entryDx=0;entryDy=0;exitX=0.5;exitY=0;exitDx=0;exitDy=0;" parent="1" source="hElJWdTbk3UEkmLetc8G-203" target="hElJWdTbk3UEkmLetc8G-198" edge="1">
          <mxGeometry width="50" height="50" relative="1" as="geometry">
            <mxPoint x="470" y="740" as="sourcePoint" />
            <mxPoint x="520" y="690" as="targetPoint" />
          </mxGeometry>
        </mxCell>
        <mxCell id="hElJWdTbk3UEkmLetc8G-205" value="" style="endArrow=none;html=1;rounded=0;entryX=0.5;entryY=1;entryDx=0;entryDy=0;" parent="1" target="hElJWdTbk3UEkmLetc8G-203" edge="1">
          <mxGeometry width="50" height="50" relative="1" as="geometry">
            <mxPoint x="640" y="920" as="sourcePoint" />
            <mxPoint x="480" y="740" as="targetPoint" />
          </mxGeometry>
        </mxCell>
        <mxCell id="hElJWdTbk3UEkmLetc8G-206" value="1" style="text;html=1;strokeColor=none;fillColor=none;align=center;verticalAlign=middle;whiteSpace=wrap;rounded=0;fontStyle=1" parent="1" vertex="1">
          <mxGeometry x="767" y="530" width="60" height="30" as="geometry" />
        </mxCell>
        <mxCell id="hElJWdTbk3UEkmLetc8G-207" value="n" style="text;html=1;strokeColor=none;fillColor=none;align=center;verticalAlign=middle;whiteSpace=wrap;rounded=0;fontStyle=1" parent="1" vertex="1">
          <mxGeometry x="835" y="690" width="60" height="30" as="geometry" />
        </mxCell>
        <mxCell id="cuXsgZ6rwh19QySegD-b-1" value="Role" style="rounded=0;whiteSpace=wrap;html=1;" parent="1" vertex="1">
          <mxGeometry x="110" y="490" width="120" height="60" as="geometry" />
        </mxCell>
        <mxCell id="cuXsgZ6rwh19QySegD-b-2" value="role_id" style="ellipse;whiteSpace=wrap;html=1;" parent="1" vertex="1">
          <mxGeometry x="-10" y="330" width="140" height="60" as="geometry" />
        </mxCell>
        <mxCell id="cuXsgZ6rwh19QySegD-b-3" value="role_name" style="ellipse;whiteSpace=wrap;html=1;" parent="1" vertex="1">
          <mxGeometry x="220" y="320" width="150" height="70" as="geometry" />
        </mxCell>
        <mxCell id="cuXsgZ6rwh19QySegD-b-4" value="" style="endArrow=none;html=1;rounded=0;entryX=0.5;entryY=1;entryDx=0;entryDy=0;exitX=0.5;exitY=0;exitDx=0;exitDy=0;" parent="1" source="cuXsgZ6rwh19QySegD-b-1" target="cuXsgZ6rwh19QySegD-b-3" edge="1">
          <mxGeometry width="50" height="50" relative="1" as="geometry">
            <mxPoint x="550" y="700" as="sourcePoint" />
            <mxPoint x="600" y="650" as="targetPoint" />
          </mxGeometry>
        </mxCell>
        <mxCell id="cuXsgZ6rwh19QySegD-b-5" value="" style="endArrow=none;html=1;rounded=0;entryX=0.5;entryY=1;entryDx=0;entryDy=0;exitX=0.5;exitY=0;exitDx=0;exitDy=0;" parent="1" source="cuXsgZ6rwh19QySegD-b-1" target="cuXsgZ6rwh19QySegD-b-2" edge="1">
          <mxGeometry width="50" height="50" relative="1" as="geometry">
            <mxPoint x="550" y="700" as="sourcePoint" />
            <mxPoint x="600" y="650" as="targetPoint" />
          </mxGeometry>
        </mxCell>
      </root>
    </mxGraphModel>
  </diagram>
</mxfile>
